<svg xmlns="http://www.w3.org/2000/svg" viewBox="0 0 500 500"><title>Asset 30</title><g id="Layer_2" data-name="Layer 2"><g id="Layer_1-2" data-name="Layer 1"><rect width="500" height="500" fill="none"/><path d="M477.2,250.8c0,125.92-102.08,228-228,228h0c-125.92,0-228-102.08-228-228h0c0-125.92,102.08-228,228-228h0c125.92,0,228,102.08,228,228Z" fill="#8cc34a"/><path d="M239.29,71.77V122l10.42,10.42-56.65,18.18s-19.75,10.45-19.75,23.23c0,6-1,11.44-1.61,16.06l-8-5.32,4.73,26.28c.66.89-3.77,11.16,7.78,22.75,17.37,17.43,42.27,42.12,63,62.67v40.16l7.4,7.39-.21,8.84s-31.93-5-51.44-6.15l-35.79-35.78H156.3v36.6L284.78,475.86A228,228,0,0,0,475.29,278.55l-143-143v7.39L261.11,71.76H239.29Z" fill="#356a34"/><path d="M342.07,292.83q0,28.65-22.37,47.69-22.36,18.86-58.59,22.37V429.8H239.29v-66a234.51,234.51,0,0,1-45.84-4.62Q172,354.57,156.3,347.36v-36.6h2.95a125.48,125.48,0,0,0,12.57,7.58,142.76,142.76,0,0,0,17.56,8A219,219,0,0,0,211.75,333a149.07,149.07,0,0,0,27.54,3.51v-80q-7.39-1.49-13.68-2.77-6.29-1.49-11.64-3-30.14-7.58-43.26-22.74-13.12-15.34-13.12-37.71,0-27.35,21.44-46.21,21.63-18.85,60.26-22V71.76H261.1v49.91a208.05,208.05,0,0,1,38.27,4.43,196.09,196.09,0,0,1,32.9,9.43v36.23h-2.59a221.4,221.4,0,0,0-29-15q-15-6.66-39.55-8.32v79.67q5.53.92,12,2.58,6.47,1.49,11.28,2.41,27.54,5.91,42.51,20.33,15.16,14.41,15.16,39.37ZM239.29,225V148.65q-19.77,1.48-33.27,10.91-13.5,9.24-13.49,25.87,0,16.83,10,25.33T239.29,225Zm67.84,72.65q0-17.38-10.9-25.33-10.73-8.13-35.13-12.75v76.53q22.18-2.22,34-11.28,12-9.06,12-27.17Z" fill="#fff"/></g></g></svg>